<svg version="1.0" xmlns="http://www.w3.org/2000/svg"
     width="1024.000000pt" height="1024.000000pt" viewBox="0 0 1024.000000 1024.000000"
     preserveAspectRatio="xMidYMid meet">

    <g transform="translate(0.000000,1024.000000) scale(0.100000,-0.100000)"
       fill="#000000" stroke="none">
        <path d="M5097 7490 c-39 -46 -97 -146 -97 -167 0 -10 160 -259 354 -552 l355
-534 -29 -56 c-54 -103 -60 -224 -15 -310 8 -17 112 -176 230 -354 118 -179
215 -326 215 -328 0 -2 -118 -3 -262 -1 -145 1 -366 -1 -493 -5 l-230 -8 -236
-116 -237 -117 -315 1 c-313 2 -314 2 -302 22 7 11 53 83 102 160 49 77 98
154 109 172 10 18 46 72 78 120 71 105 136 205 323 493 77 118 206 315 288
438 196 296 194 273 44 500 -87 132 -115 162 -149 162 -31 0 -50 -20 -114
-118 -25 -40 -138 -211 -250 -380 -111 -169 -294 -446 -406 -617 -112 -170
-328 -499 -481 -731 -154 -231 -279 -427 -279 -436 0 -9 6 -20 13 -26 19 -16
3621 -29 3660 -13 45 18 35 50 -52 174 -43 62 -173 256 -288 432 -115 176
-396 601 -624 945 -409 618 -604 914 -753 1142 -96 147 -115 161 -159 108z"/>
        <path d="M5056 6058 c-39 -62 -134 -213 -213 -336 -79 -122 -143 -231 -143
-242 0 -20 9 -20 440 -20 372 0 441 2 446 14 3 8 -28 65 -68 128 -41 62 -111
172 -156 243 -139 223 -206 320 -222 323 -10 1 -40 -39 -84 -110z"/>
        <path d="M3140 4257 c-47 -24 -50 -44 -50 -325 0 -175 -4 -271 -11 -285 -33
-65 -100 -96 -164 -78 -19 5 -56 28 -81 50 -39 34 -54 41 -90 41 -35 0 -47 -5
-68 -31 -33 -39 -33 -76 0 -124 35 -52 59 -71 133 -107 53 -26 76 -31 135 -32
140 0 246 62 306 178 l35 69 3 299 3 298 -30 30 c-33 33 -77 39 -121 17z"/>
        <path d="M3761 4246 c-12 -13 -46 -88 -75 -167 -104 -279 -194 -515 -215 -562
-35 -81 -25 -127 31 -146 38 -13 91 -5 112 17 8 10 28 51 44 92 l30 75 138 0
138 0 31 -72 c42 -100 56 -113 121 -113 45 0 56 4 73 26 28 35 26 59 -8 135
-16 35 -65 163 -110 284 -174 469 -167 455 -244 455 -33 0 -49 -6 -66 -24z
m108 -421 c17 -44 31 -81 31 -82 0 -2 -31 -3 -70 -3 -38 0 -70 1 -70 3 0 4 46
136 55 160 11 26 19 13 54 -78z"/>
        <path d="M4585 4257 c-179 -60 -263 -227 -189 -376 35 -69 79 -100 211 -147
60 -20 120 -46 136 -56 36 -26 37 -69 1 -97 -51 -40 -141 -22 -231 45 -17 13
-35 24 -40 24 -13 0 -113 -104 -113 -118 0 -20 70 -91 116 -118 62 -36 171
-57 242 -45 115 19 176 61 222 155 29 59 32 73 27 126 -11 123 -70 180 -250
245 -122 43 -152 68 -142 115 10 47 69 77 129 66 18 -4 58 -22 89 -40 l57 -34
50 56 c27 31 50 61 50 68 0 20 -80 85 -138 112 -66 30 -168 38 -227 19z"/>
        <path d="M5304 4263 c-100 -6 -101 -9 -105 -248 -2 -110 -3 -286 -1 -392 2
-190 2 -192 28 -222 l26 -31 245 0 245 0 29 29 c33 34 37 69 12 111 -26 45
-51 50 -228 50 l-165 0 0 80 0 80 139 0 140 0 21 28 c18 21 21 36 17 72 -8 73
-24 80 -189 80 l-139 0 3 83 3 82 183 5 184 5 24 28 c33 38 33 96 0 134 l-24
28 -194 1 c-106 0 -221 -1 -254 -3z"/>
        <path d="M6034 4245 l-25 -25 3 -406 3 -406 29 -25 c40 -34 109 -28 143 12 21
24 23 36 23 148 0 101 3 126 18 145 l18 23 117 -153 c64 -85 125 -163 137
-173 14 -12 40 -20 78 -23 47 -3 62 0 85 18 15 12 27 31 27 45 0 14 -59 102
-155 232 -85 114 -154 211 -152 214 1 4 62 71 135 149 73 78 140 153 148 166
34 51 -9 84 -111 84 -77 0 -81 -3 -235 -178 l-105 -120 -5 130 c-5 121 -7 131
-29 149 -36 29 -115 26 -147 -6z"/>
        <path d="M7115 4252 c-77 -26 -135 -65 -193 -126 -126 -133 -157 -339 -76
-503 37 -76 143 -182 219 -219 56 -27 68 -29 181 -29 119 0 121 0 196 38 89
44 177 132 215 214 111 243 -22 544 -276 623 -80 25 -197 26 -266 2z m223
-208 c47 -19 98 -68 125 -119 33 -62 31 -165 -5 -226 -36 -62 -78 -95 -140
-114 -96 -28 -154 -16 -226 49 -132 120 -99 342 63 412 41 18 138 17 183 -2z"/>
    </g>
</svg>
